<mxfile host="app.diagrams.net" modified="2021-03-24T21:05:30.662Z" agent="5.0 (Windows NT 10.0; Win64; x64) AppleWebKit/537.36 (KHTML, like Gecko) Chrome/88.0.4324.186 Safari/537.36" etag="vjYH7s-HNSow0Vb4WUJt" version="14.5.1" type="github">
  <diagram id="C5RBs43oDa-KdzZeNtuy" name="Page-1">
    <mxGraphModel dx="61" dy="884" grid="1" gridSize="10" guides="1" tooltips="1" connect="1" arrows="1" fold="1" page="1" pageScale="1" pageWidth="1169" pageHeight="827" background="#FFFFFF" math="0" shadow="1">
      <root>
        <mxCell id="WIyWlLk6GJQsqaUBKTNV-0" />
        <mxCell id="WIyWlLk6GJQsqaUBKTNV-1" parent="WIyWlLk6GJQsqaUBKTNV-0" />
        <mxCell id="zkfFHV4jXpPFQw0GAbJ--0" value="Market" style="swimlane;fontStyle=1;align=center;verticalAlign=top;childLayout=stackLayout;horizontal=1;startSize=26;horizontalStack=0;resizeParent=1;resizeLast=0;collapsible=1;marginBottom=0;rounded=0;shadow=0;strokeWidth=1;swimlaneFillColor=#ffffff;" parent="WIyWlLk6GJQsqaUBKTNV-1" vertex="1">
          <mxGeometry x="1840" y="39" width="310" height="150" as="geometry">
            <mxRectangle x="220" y="120" width="160" height="26" as="alternateBounds" />
          </mxGeometry>
        </mxCell>
        <mxCell id="zkfFHV4jXpPFQw0GAbJ--1" value="- marketBoard: Marble[4][3]&#xa;- sideMarble: Marble" style="text;align=left;verticalAlign=top;spacingLeft=4;spacingRight=4;overflow=hidden;rotatable=0;points=[[0,0.5],[1,0.5]];portConstraint=eastwest;" parent="zkfFHV4jXpPFQw0GAbJ--0" vertex="1">
          <mxGeometry y="26" width="310" height="34" as="geometry" />
        </mxCell>
        <mxCell id="zkfFHV4jXpPFQw0GAbJ--4" value="" style="line;html=1;strokeWidth=1;align=left;verticalAlign=middle;spacingTop=-1;spacingLeft=3;spacingRight=3;rotatable=0;labelPosition=right;points=[];portConstraint=eastwest;" parent="zkfFHV4jXpPFQw0GAbJ--0" vertex="1">
          <mxGeometry y="60" width="310" height="8" as="geometry" />
        </mxCell>
        <mxCell id="zkfFHV4jXpPFQw0GAbJ--5" value="+ setMarketBoard (marketBoard: Marble[4][3])&#xa;+ getMarketBoard(): Marble[4][3]&#xa;+ setSideMarble(Marble)&#xa;+ getSideMarble(): Marble&#xa;+ takeResources(isRow: boolen, position: int): Marble[4]" style="text;align=left;verticalAlign=top;spacingLeft=4;spacingRight=4;overflow=hidden;rotatable=0;points=[[0,0.5],[1,0.5]];portConstraint=eastwest;" parent="zkfFHV4jXpPFQw0GAbJ--0" vertex="1">
          <mxGeometry y="68" width="310" height="82" as="geometry" />
        </mxCell>
        <mxCell id="3G_JpGnnki6wpbxw6Dh9-0" value="&lt;p style=&quot;margin: 0px ; margin-top: 4px ; text-align: center&quot;&gt;&lt;b&gt;PlayerBoard&lt;/b&gt;&lt;/p&gt;&lt;hr size=&quot;1&quot;&gt;&lt;p style=&quot;margin: 0px ; margin-left: 4px&quot;&gt;- faithTrack: int&lt;/p&gt;&lt;p style=&quot;margin: 0px ; margin-left: 4px&quot;&gt;+ depot: Depot&lt;/p&gt;&lt;p style=&quot;margin: 0px ; margin-left: 4px&quot;&gt;+ strongbox: Resource[]&lt;/p&gt;&lt;p style=&quot;margin: 0px ; margin-left: 4px&quot;&gt;+ devCardsBoard: DevCard [3][3]&lt;/p&gt;&lt;p style=&quot;margin: 0px ; margin-left: 4px&quot;&gt;+ leaderCards: LeaderCard[2]&lt;/p&gt;&lt;hr size=&quot;1&quot;&gt;&lt;p style=&quot;margin: 0px ; margin-left: 4px&quot;&gt;+ hasActiveTransformLeader(): boolean&lt;/p&gt;&lt;p style=&quot;margin: 0px ; margin-left: 4px&quot;&gt;+ addFaith(faith: int): void&lt;br&gt;+ getFaith(): int&lt;/p&gt;" style="verticalAlign=top;align=left;overflow=fill;fontSize=12;fontFamily=Helvetica;html=1;" parent="WIyWlLk6GJQsqaUBKTNV-1" vertex="1">
          <mxGeometry x="1840" y="590" width="250" height="230" as="geometry" />
        </mxCell>
        <mxCell id="35oZMmhd7yD35cJpi1J_-1" value="Standard Rules Set" style="swimlane;html=1;startSize=20;horizontal=1;containerType=tree;newEdgeStyle={&quot;edgeStyle&quot;:&quot;elbowEdgeStyle&quot;,&quot;startArrow&quot;:&quot;none&quot;,&quot;endArrow&quot;:&quot;none&quot;};strokeColor=#000000;swimlaneFillColor=#ffffff;" parent="WIyWlLk6GJQsqaUBKTNV-1" vertex="1">
          <mxGeometry x="1480" y="118" width="280" height="80" as="geometry" />
        </mxCell>
        <mxCell id="s9a0PcFc4wz41X3oclvl-4" value="+TODO: inserire tutti i settaggi standard" style="text;strokeColor=none;fillColor=none;align=left;verticalAlign=top;spacingLeft=4;spacingRight=4;overflow=hidden;rotatable=0;points=[[0,0.5],[1,0.5]];portConstraint=eastwest;" parent="35oZMmhd7yD35cJpi1J_-1" vertex="1">
          <mxGeometry y="20" width="280" height="60" as="geometry" />
        </mxCell>
        <mxCell id="oog7lrOWCa2fzUTYI8c2-10" value="Extends" style="endArrow=block;endSize=16;endFill=0;html=1;" parent="WIyWlLk6GJQsqaUBKTNV-1" source="oog7lrOWCa2fzUTYI8c2-14" target="qD7D_m39awc1MZy7WmdB-0" edge="1">
          <mxGeometry x="0.2993" y="14" width="160" relative="1" as="geometry">
            <mxPoint x="1640" y="1025" as="sourcePoint" />
            <mxPoint x="1739.5" y="1070" as="targetPoint" />
            <mxPoint as="offset" />
            <Array as="points">
              <mxPoint x="1610" y="1024" />
            </Array>
          </mxGeometry>
        </mxCell>
        <mxCell id="35oZMmhd7yD35cJpi1J_-7" value="Custom Rules Set" style="swimlane;swimlaneFillColor=#ffffff;startSize=23;swimlaneLine=1;rounded=0;glass=0;sketch=0;perimeterSpacing=1;align=center;" parent="WIyWlLk6GJQsqaUBKTNV-1" vertex="1">
          <mxGeometry x="1480" y="238" width="280" height="140" as="geometry">
            <mxRectangle x="1160" y="280" width="140" height="23" as="alternateBounds" />
          </mxGeometry>
        </mxCell>
        <mxCell id="s9a0PcFc4wz41X3oclvl-5" value="-name: string&lt;br&gt;-TODO: inserire tutti i settaggi vuoti" style="text;align=left;verticalAlign=top;spacingLeft=2;spacingRight=0;overflow=hidden;rotatable=0;points=[[0,0.5],[1,0.5]];portConstraint=eastwest;html=1;whiteSpace=wrap;labelBorderColor=none;labelBackgroundColor=none;textDirection=ltr;labelPosition=center;verticalLabelPosition=middle;shadow=0;" parent="35oZMmhd7yD35cJpi1J_-7" vertex="1">
          <mxGeometry y="23" width="280" height="37" as="geometry" />
        </mxCell>
        <mxCell id="yiOMKS7E3EkovL9F9Eef-10" value="+load()&#xa;+edit()&#xa;+save()&#xa;+delete()" style="text;strokeColor=none;fillColor=none;align=left;verticalAlign=top;spacingLeft=4;spacingRight=4;overflow=hidden;rotatable=0;points=[[0,0.5],[1,0.5]];portConstraint=eastwest;" parent="35oZMmhd7yD35cJpi1J_-7" vertex="1">
          <mxGeometry y="60" width="280" height="70" as="geometry" />
        </mxCell>
        <mxCell id="yiOMKS7E3EkovL9F9Eef-9" value="" style="line;html=1;strokeWidth=1;align=left;verticalAlign=middle;spacingTop=-1;spacingLeft=3;spacingRight=3;rotatable=0;labelPosition=right;points=[];portConstraint=eastwest;" parent="35oZMmhd7yD35cJpi1J_-7" vertex="1">
          <mxGeometry y="56" width="280" height="8" as="geometry" />
        </mxCell>
        <mxCell id="oog7lrOWCa2fzUTYI8c2-11" value="LeaderSale" style="swimlane;fontStyle=0;childLayout=stackLayout;horizontal=1;startSize=26;horizontalStack=0;resizeParent=1;resizeParentMax=0;resizeLast=0;collapsible=1;marginBottom=0;swimlaneFillColor=#ffffff;" parent="WIyWlLk6GJQsqaUBKTNV-1" vertex="1">
          <mxGeometry x="1390" y="890" width="220" height="60" as="geometry" />
        </mxCell>
        <mxCell id="qB0gsq-18giz4WO5CfZz-30" value="" style="line;strokeWidth=1;fillColor=none;align=left;verticalAlign=middle;spacingTop=-1;spacingLeft=3;spacingRight=3;rotatable=0;labelPosition=right;points=[];portConstraint=eastwest;startSize=26;" parent="oog7lrOWCa2fzUTYI8c2-11" vertex="1">
          <mxGeometry y="26" width="220" height="8" as="geometry" />
        </mxCell>
        <mxCell id="qB0gsq-18giz4WO5CfZz-29" value="-DownPrice(DevCard.cost, Type): void" style="text;strokeColor=none;fillColor=none;align=left;verticalAlign=top;spacingLeft=4;spacingRight=4;overflow=hidden;rotatable=0;points=[[0,0.5],[1,0.5]];portConstraint=eastwest;startSize=26;" parent="oog7lrOWCa2fzUTYI8c2-11" vertex="1">
          <mxGeometry y="34" width="220" height="26" as="geometry" />
        </mxCell>
        <mxCell id="6qONtpnG5qTaz_-XZDPJ-0" value="&lt;&lt;enum&gt;&gt;&#xa;Level" style="swimlane;fontStyle=1;childLayout=stackLayout;horizontal=1;startSize=26;horizontalStack=0;resizeParent=1;resizeParentMax=0;resizeLast=0;collapsible=1;marginBottom=0;swimlaneFillColor=#ffffff;" parent="WIyWlLk6GJQsqaUBKTNV-1" vertex="1">
          <mxGeometry x="2830" y="538" width="140" height="80" as="geometry" />
        </mxCell>
        <mxCell id="6qONtpnG5qTaz_-XZDPJ-2" value="ONE&#xa;TWO&#xa;THREE" style="text;strokeColor=none;fillColor=none;align=left;verticalAlign=top;spacingLeft=4;spacingRight=4;overflow=hidden;rotatable=0;points=[[0,0.5],[1,0.5]];portConstraint=eastwest;" parent="6qONtpnG5qTaz_-XZDPJ-0" vertex="1">
          <mxGeometry y="26" width="140" height="54" as="geometry" />
        </mxCell>
        <mxCell id="oog7lrOWCa2fzUTYI8c2-12" value="LeaderProduction" style="swimlane;fontStyle=0;childLayout=stackLayout;horizontal=1;startSize=26;horizontalStack=0;resizeParent=1;resizeParentMax=0;resizeLast=0;collapsible=1;marginBottom=0;swimlaneFillColor=#ffffff;" parent="WIyWlLk6GJQsqaUBKTNV-1" vertex="1">
          <mxGeometry x="1400" y="1180" width="160" height="94" as="geometry" />
        </mxCell>
        <mxCell id="qB0gsq-18giz4WO5CfZz-24" value="+ production: Produzione&#xa;- Choice(); Resource" style="text;strokeColor=none;fillColor=none;align=left;verticalAlign=top;spacingLeft=4;spacingRight=4;overflow=hidden;rotatable=0;points=[[0,0.5],[1,0.5]];portConstraint=eastwest;" parent="oog7lrOWCa2fzUTYI8c2-12" vertex="1">
          <mxGeometry y="26" width="160" height="34" as="geometry" />
        </mxCell>
        <mxCell id="oog7lrOWCa2fzUTYI8c2-26" value="" style="line;strokeWidth=1;fillColor=none;align=left;verticalAlign=middle;spacingTop=-1;spacingLeft=3;spacingRight=3;rotatable=0;labelPosition=right;points=[];portConstraint=eastwest;" parent="oog7lrOWCa2fzUTYI8c2-12" vertex="1">
          <mxGeometry y="60" width="160" height="8" as="geometry" />
        </mxCell>
        <mxCell id="qB0gsq-18giz4WO5CfZz-23" value="+SetChoice(): void" style="text;strokeColor=none;fillColor=none;align=left;verticalAlign=top;spacingLeft=4;spacingRight=4;overflow=hidden;rotatable=0;points=[[0,0.5],[1,0.5]];portConstraint=eastwest;" parent="oog7lrOWCa2fzUTYI8c2-12" vertex="1">
          <mxGeometry y="68" width="160" height="26" as="geometry" />
        </mxCell>
        <mxCell id="6qONtpnG5qTaz_-XZDPJ-4" value="&lt;&lt;enum&gt;&gt;&#xa;CardColor" style="swimlane;fontStyle=1;childLayout=stackLayout;horizontal=1;startSize=26;horizontalStack=0;resizeParent=1;resizeParentMax=0;resizeLast=0;collapsible=1;marginBottom=0;swimlaneFillColor=#ffffff;" parent="WIyWlLk6GJQsqaUBKTNV-1" vertex="1">
          <mxGeometry x="2830" y="428" width="140" height="90" as="geometry" />
        </mxCell>
        <mxCell id="6qONtpnG5qTaz_-XZDPJ-5" value="BLUE&#xa;YELLOW&#xa;GREEN&#xa;PURPLE" style="text;strokeColor=none;fillColor=none;align=left;verticalAlign=top;spacingLeft=4;spacingRight=4;overflow=hidden;rotatable=0;points=[[0,0.5],[1,0.5]];portConstraint=eastwest;" parent="6qONtpnG5qTaz_-XZDPJ-4" vertex="1">
          <mxGeometry y="26" width="140" height="64" as="geometry" />
        </mxCell>
        <mxCell id="oog7lrOWCa2fzUTYI8c2-13" value="LeaderTransform" style="swimlane;fontStyle=0;childLayout=stackLayout;horizontal=1;startSize=26;horizontalStack=0;resizeParent=1;resizeParentMax=0;resizeLast=0;collapsible=1;marginBottom=0;swimlaneFillColor=#ffffff;" parent="WIyWlLk6GJQsqaUBKTNV-1" vertex="1">
          <mxGeometry x="1395" y="1080" width="210" height="60" as="geometry" />
        </mxCell>
        <mxCell id="qB0gsq-18giz4WO5CfZz-32" value="" style="line;strokeWidth=1;fillColor=none;align=left;verticalAlign=middle;spacingTop=-1;spacingLeft=3;spacingRight=3;rotatable=0;labelPosition=right;points=[];portConstraint=eastwest;startSize=26;" parent="oog7lrOWCa2fzUTYI8c2-13" vertex="1">
          <mxGeometry y="26" width="210" height="8" as="geometry" />
        </mxCell>
        <mxCell id="qB0gsq-18giz4WO5CfZz-36" value="+ WhiteTo(WHITE[]): Reasource[]" style="text;strokeColor=none;fillColor=none;align=left;verticalAlign=top;spacingLeft=4;spacingRight=4;overflow=hidden;rotatable=0;points=[[0,0.5],[1,0.5]];portConstraint=eastwest;startSize=26;" parent="oog7lrOWCa2fzUTYI8c2-13" vertex="1">
          <mxGeometry y="34" width="210" height="26" as="geometry" />
        </mxCell>
        <mxCell id="NfzXFvAN2sLwhFyiHCVM-0" value="&lt;&lt;enumeration&gt;&gt;&#xa;Marble" style="swimlane;fontStyle=1;childLayout=stackLayout;horizontal=1;startSize=26;horizontalStack=0;resizeParent=1;resizeParentMax=0;resizeLast=0;collapsible=1;marginBottom=0;swimlaneFillColor=#ffffff;" parent="WIyWlLk6GJQsqaUBKTNV-1" vertex="1">
          <mxGeometry x="2198" y="40" width="140" height="140" as="geometry" />
        </mxCell>
        <mxCell id="NfzXFvAN2sLwhFyiHCVM-3" value="WHITE&#xa;BLUE&#xa;GRAY&#xa;YELLOW&#xa;PURPLE&#xa;RED&#xa;EMPTY" style="text;strokeColor=none;fillColor=none;align=left;verticalAlign=top;spacingLeft=4;spacingRight=4;overflow=hidden;rotatable=0;points=[[0,0.5],[1,0.5]];portConstraint=eastwest;" parent="NfzXFvAN2sLwhFyiHCVM-0" vertex="1">
          <mxGeometry y="26" width="140" height="114" as="geometry" />
        </mxCell>
        <mxCell id="35oZMmhd7yD35cJpi1J_-8" value="Interface (commandLine)" style="swimlane;strokeColor=#000000;swimlaneFillColor=#ffffff;" parent="WIyWlLk6GJQsqaUBKTNV-1" vertex="1">
          <mxGeometry x="1200" y="118" width="240" height="260" as="geometry" />
        </mxCell>
        <mxCell id="s9a0PcFc4wz41X3oclvl-0" value="+login()&#xa;&#xa;+createMatch()&#xa;+joinMatch()&#xa;+continueMatch()&#xa;&#xa;+enterRuleEditor()&#xa;+serverInteraction()" style="text;strokeColor=none;fillColor=none;align=left;verticalAlign=top;spacingLeft=4;spacingRight=4;overflow=hidden;rotatable=0;points=[[0,0.5],[1,0.5]];portConstraint=eastwest;" parent="35oZMmhd7yD35cJpi1J_-8" vertex="1">
          <mxGeometry y="140" width="240" height="120" as="geometry" />
        </mxCell>
        <mxCell id="s9a0PcFc4wz41X3oclvl-2" value="-username: string&#xa;-password: string&#xa;&#xa;-idMatch: int&#xa;-serverAdress: int&#xa;-nameMatch: string&#xa;-isEnded: boolean" style="text;strokeColor=none;fillColor=none;align=left;verticalAlign=top;spacingLeft=4;spacingRight=4;overflow=hidden;rotatable=0;points=[[0,0.5],[1,0.5]];portConstraint=eastwest;" parent="35oZMmhd7yD35cJpi1J_-8" vertex="1">
          <mxGeometry y="20" width="240" height="110" as="geometry" />
        </mxCell>
        <mxCell id="yiOMKS7E3EkovL9F9Eef-12" value="" style="line;html=1;strokeWidth=1;align=left;verticalAlign=middle;spacingTop=-1;spacingLeft=3;spacingRight=3;rotatable=0;labelPosition=right;points=[];portConstraint=eastwest;" parent="35oZMmhd7yD35cJpi1J_-8" vertex="1">
          <mxGeometry y="130" width="240" height="8" as="geometry" />
        </mxCell>
        <mxCell id="oog7lrOWCa2fzUTYI8c2-14" value="LeaderDepot" style="swimlane;fontStyle=0;childLayout=stackLayout;horizontal=1;startSize=26;horizontalStack=0;resizeParent=1;resizeParentMax=0;resizeLast=0;collapsible=1;marginBottom=0;swimlaneFillColor=#ffffff;" parent="WIyWlLk6GJQsqaUBKTNV-1" vertex="1">
          <mxGeometry x="1420" y="980" width="160" height="60" as="geometry" />
        </mxCell>
        <mxCell id="qB0gsq-18giz4WO5CfZz-31" value="" style="line;strokeWidth=1;fillColor=none;align=left;verticalAlign=middle;spacingTop=-1;spacingLeft=3;spacingRight=3;rotatable=0;labelPosition=right;points=[];portConstraint=eastwest;startSize=26;" parent="oog7lrOWCa2fzUTYI8c2-14" vertex="1">
          <mxGeometry y="26" width="160" height="8" as="geometry" />
        </mxCell>
        <mxCell id="qB0gsq-18giz4WO5CfZz-33" value="- activateDepot(): void" style="text;strokeColor=none;fillColor=none;align=left;verticalAlign=top;spacingLeft=4;spacingRight=4;overflow=hidden;rotatable=0;points=[[0,0.5],[1,0.5]];portConstraint=eastwest;startSize=26;" parent="oog7lrOWCa2fzUTYI8c2-14" vertex="1">
          <mxGeometry y="34" width="160" height="26" as="geometry" />
        </mxCell>
        <mxCell id="SAUgXPHbTDug8tTQSV8n-4" style="edgeStyle=orthogonalEdgeStyle;rounded=0;orthogonalLoop=1;jettySize=auto;html=1;" parent="WIyWlLk6GJQsqaUBKTNV-1" source="6qONtpnG5qTaz_-XZDPJ-6" target="oog7lrOWCa2fzUTYI8c2-12" edge="1">
          <mxGeometry relative="1" as="geometry">
            <mxPoint x="1480" y="1300" as="targetPoint" />
            <Array as="points">
              <mxPoint x="2630" y="1300" />
              <mxPoint x="1490" y="1300" />
            </Array>
          </mxGeometry>
        </mxCell>
        <mxCell id="6qONtpnG5qTaz_-XZDPJ-6" value="Production" style="swimlane;fontStyle=1;align=center;verticalAlign=top;childLayout=stackLayout;horizontal=1;startSize=26;horizontalStack=0;resizeParent=1;resizeParentMax=0;resizeLast=0;collapsible=1;marginBottom=0;swimlaneFillColor=#ffffff;" parent="WIyWlLk6GJQsqaUBKTNV-1" vertex="1">
          <mxGeometry x="2410" y="730" width="290" height="120" as="geometry" />
        </mxCell>
        <mxCell id="6qONtpnG5qTaz_-XZDPJ-7" value="- input: Array Resource&#xa;- output: Array Resource" style="text;strokeColor=none;fillColor=none;align=left;verticalAlign=top;spacingLeft=4;spacingRight=4;overflow=hidden;rotatable=0;points=[[0,0.5],[1,0.5]];portConstraint=eastwest;" parent="6qONtpnG5qTaz_-XZDPJ-6" vertex="1">
          <mxGeometry y="26" width="290" height="34" as="geometry" />
        </mxCell>
        <mxCell id="6qONtpnG5qTaz_-XZDPJ-8" value="" style="line;strokeWidth=1;fillColor=none;align=left;verticalAlign=middle;spacingTop=-1;spacingLeft=3;spacingRight=3;rotatable=0;labelPosition=right;points=[];portConstraint=eastwest;" parent="6qONtpnG5qTaz_-XZDPJ-6" vertex="1">
          <mxGeometry y="60" width="290" height="8" as="geometry" />
        </mxCell>
        <mxCell id="6qONtpnG5qTaz_-XZDPJ-9" value="+ GetInputProduction(): Array Resource&#xa;+ GetOutputProduction(): Array Resource&#xa;+ Produce(input: Array Resource): Array Resource" style="text;strokeColor=none;fillColor=none;align=left;verticalAlign=top;spacingLeft=4;spacingRight=4;overflow=hidden;rotatable=0;points=[[0,0.5],[1,0.5]];portConstraint=eastwest;" parent="6qONtpnG5qTaz_-XZDPJ-6" vertex="1">
          <mxGeometry y="68" width="290" height="52" as="geometry" />
        </mxCell>
        <mxCell id="kXcpg0YlyU-LXUACbQBH-1" value="&lt;&lt;enum&gt;&gt;&#xa;Resource" style="swimlane;fontStyle=1;childLayout=stackLayout;horizontal=1;startSize=30;horizontalStack=0;resizeParent=1;resizeParentMax=0;resizeLast=0;collapsible=1;marginBottom=0;swimlaneFillColor=#ffffff;" parent="WIyWlLk6GJQsqaUBKTNV-1" vertex="1">
          <mxGeometry x="2830" y="306" width="140" height="104" as="geometry" />
        </mxCell>
        <mxCell id="kXcpg0YlyU-LXUACbQBH-4" value="STONE&#xa;SERVANT&#xa;COIN&#xa;SHIELD" style="text;strokeColor=none;fillColor=none;align=left;verticalAlign=top;spacingLeft=4;spacingRight=4;overflow=hidden;rotatable=0;points=[[0,0.5],[1,0.5]];portConstraint=eastwest;" parent="kXcpg0YlyU-LXUACbQBH-1" vertex="1">
          <mxGeometry y="30" width="140" height="74" as="geometry" />
        </mxCell>
        <mxCell id="5tt3_I8p8CxLFxKSJom4-4" value="DevCardDeck" style="swimlane;fontStyle=1;align=center;verticalAlign=top;childLayout=stackLayout;horizontal=1;startSize=26;horizontalStack=0;resizeParent=1;resizeParentMax=0;resizeLast=0;collapsible=1;marginBottom=0;swimlaneFillColor=#ffffff;" parent="WIyWlLk6GJQsqaUBKTNV-1" vertex="1">
          <mxGeometry x="2360" y="230" width="360" height="100" as="geometry" />
        </mxCell>
        <mxCell id="5tt3_I8p8CxLFxKSJom4-5" value="- decks: DevCard [3][4][4]" style="text;strokeColor=none;fillColor=none;align=left;verticalAlign=top;spacingLeft=4;spacingRight=4;overflow=hidden;rotatable=0;points=[[0,0.5],[1,0.5]];portConstraint=eastwest;" parent="5tt3_I8p8CxLFxKSJom4-4" vertex="1">
          <mxGeometry y="26" width="360" height="26" as="geometry" />
        </mxCell>
        <mxCell id="5tt3_I8p8CxLFxKSJom4-6" value="" style="line;strokeWidth=1;fillColor=none;align=left;verticalAlign=middle;spacingTop=-1;spacingLeft=3;spacingRight=3;rotatable=0;labelPosition=right;points=[];portConstraint=eastwest;" parent="5tt3_I8p8CxLFxKSJom4-4" vertex="1">
          <mxGeometry y="52" width="360" height="8" as="geometry" />
        </mxCell>
        <mxCell id="5tt3_I8p8CxLFxKSJom4-7" value="+ draw (color: CardColor, level: Level): DevCard&#xa;+ getTopCards(): DevCard[3][4]" style="text;strokeColor=none;fillColor=none;align=left;verticalAlign=top;spacingLeft=4;spacingRight=4;overflow=hidden;rotatable=0;points=[[0,0.5],[1,0.5]];portConstraint=eastwest;" parent="5tt3_I8p8CxLFxKSJom4-4" vertex="1">
          <mxGeometry y="60" width="360" height="40" as="geometry" />
        </mxCell>
        <mxCell id="0VNQlhb-g9pjLVwxSI6Z-0" value="" style="endArrow=diamondThin;endFill=0;endSize=24;html=1;exitX=0.5;exitY=0;exitDx=0;exitDy=0;" parent="WIyWlLk6GJQsqaUBKTNV-1" source="UYXELn-aznjXGJklCHjd-2" target="5tt3_I8p8CxLFxKSJom4-4" edge="1">
          <mxGeometry width="160" relative="1" as="geometry">
            <mxPoint x="2587.644376899696" y="394" as="sourcePoint" />
            <mxPoint x="2030" y="240" as="targetPoint" />
          </mxGeometry>
        </mxCell>
        <mxCell id="PQGHY_DN36D2wZlbmUQ8-0" value="48" style="edgeLabel;html=1;align=center;verticalAlign=middle;resizable=0;points=[];" parent="0VNQlhb-g9pjLVwxSI6Z-0" connectable="0" vertex="1">
          <mxGeometry x="-0.8595" y="-1" relative="1" as="geometry">
            <mxPoint x="22.35" as="offset" />
          </mxGeometry>
        </mxCell>
        <mxCell id="0VNQlhb-g9pjLVwxSI6Z-5" value="" style="endArrow=diamondThin;endFill=1;endSize=24;html=1;" parent="WIyWlLk6GJQsqaUBKTNV-1" source="3G_JpGnnki6wpbxw6Dh9-0" edge="1">
          <mxGeometry width="160" relative="1" as="geometry">
            <mxPoint x="2400" y="660" as="sourcePoint" />
            <mxPoint x="1760" y="705" as="targetPoint" />
          </mxGeometry>
        </mxCell>
        <mxCell id="0VNQlhb-g9pjLVwxSI6Z-6" value="1..4" style="edgeLabel;html=1;align=center;verticalAlign=middle;resizable=0;points=[];" parent="0VNQlhb-g9pjLVwxSI6Z-5" connectable="0" vertex="1">
          <mxGeometry x="-0.8603" y="3" relative="1" as="geometry">
            <mxPoint x="-4" y="-10.59" as="offset" />
          </mxGeometry>
        </mxCell>
        <mxCell id="yiOMKS7E3EkovL9F9Eef-16" value="&lt;&lt;interface&gt;&gt;&#xa;KeyListener" style="swimlane;fontStyle=1;childLayout=stackLayout;horizontal=1;startSize=26;fillColor=none;horizontalStack=0;resizeParent=1;resizeParentMax=0;resizeLast=0;collapsible=1;marginBottom=0;" parent="WIyWlLk6GJQsqaUBKTNV-1" vertex="1">
          <mxGeometry x="1200" y="40" width="140" height="40" as="geometry" />
        </mxCell>
        <mxCell id="7LExhrsFtb4krhW59dAO-0" value="Depot" style="swimlane;fontStyle=1;align=center;verticalAlign=top;childLayout=stackLayout;horizontal=1;startSize=26;horizontalStack=0;resizeParent=1;resizeParentMax=0;resizeLast=0;collapsible=1;marginBottom=0;swimlaneFillColor=#ffffff;" parent="WIyWlLk6GJQsqaUBKTNV-1" vertex="1">
          <mxGeometry x="2030" y="923" width="380" height="220" as="geometry" />
        </mxCell>
        <mxCell id="7LExhrsFtb4krhW59dAO-1" value="- row1: Resource&#xa;- row2: Resource [2]&#xa;- row3: Resource [3]&#xa;- LeadRow1: Resource [2]&#xa;- LeadRow2: Resource [2]&#xa;&#xa;" style="text;strokeColor=none;fillColor=none;align=left;verticalAlign=top;spacingLeft=4;spacingRight=4;overflow=hidden;rotatable=0;points=[[0,0.5],[1,0.5]];portConstraint=eastwest;" parent="7LExhrsFtb4krhW59dAO-0" vertex="1">
          <mxGeometry y="26" width="380" height="74" as="geometry" />
        </mxCell>
        <mxCell id="7LExhrsFtb4krhW59dAO-2" value="" style="line;strokeWidth=1;fillColor=none;align=left;verticalAlign=middle;spacingTop=-1;spacingLeft=3;spacingRight=3;rotatable=0;labelPosition=right;points=[];portConstraint=eastwest;" parent="7LExhrsFtb4krhW59dAO-0" vertex="1">
          <mxGeometry y="100" width="380" height="8" as="geometry" />
        </mxCell>
        <mxCell id="7LExhrsFtb4krhW59dAO-3" value="+ Remove(number: int, type: Resource): void&#xa;+ deposit (Array Resource): void&#xa;+ move (position1: int[2], position: int[2]): void&#xa;+ getResource (position: int[2]): Resource&#xa;- activateLeadRow1(): void&#xa;- activateLeadRow2(): void&#xa;+ activateNextLeadRow():void" style="text;strokeColor=none;fillColor=none;align=left;verticalAlign=top;spacingLeft=4;spacingRight=4;overflow=hidden;rotatable=0;points=[[0,0.5],[1,0.5]];portConstraint=eastwest;" parent="7LExhrsFtb4krhW59dAO-0" vertex="1">
          <mxGeometry y="108" width="380" height="112" as="geometry" />
        </mxCell>
        <mxCell id="yiOMKS7E3EkovL9F9Eef-20" value="" style="endArrow=classic;html=1;entryX=0.5;entryY=1;entryDx=0;entryDy=0;exitX=0.29;exitY=-0.007;exitDx=0;exitDy=0;dashed=1;exitPerimeter=0;" parent="WIyWlLk6GJQsqaUBKTNV-1" source="35oZMmhd7yD35cJpi1J_-8" target="yiOMKS7E3EkovL9F9Eef-16" edge="1">
          <mxGeometry relative="1" as="geometry">
            <mxPoint x="1229" y="130" as="sourcePoint" />
            <mxPoint x="1329" y="130" as="targetPoint" />
          </mxGeometry>
        </mxCell>
        <mxCell id="yiOMKS7E3EkovL9F9Eef-21" value="Implements" style="edgeLabel;resizable=0;html=1;align=center;verticalAlign=middle;" parent="yiOMKS7E3EkovL9F9Eef-20" connectable="0" vertex="1">
          <mxGeometry relative="1" as="geometry" />
        </mxCell>
        <mxCell id="yiOMKS7E3EkovL9F9Eef-22" value="SERVER" style="swimlane;fillColor=#f8cecc;strokeColor=#b85450;swimlaneFillColor=#ffffff;" parent="WIyWlLk6GJQsqaUBKTNV-1" vertex="1">
          <mxGeometry x="1200" y="400" width="560" height="420" as="geometry" />
        </mxCell>
        <mxCell id="yiOMKS7E3EkovL9F9Eef-7" value="IN MATCH LOGIC&#xa;&#xa;LOOP&#xa;  G1 Prendere risorse Mercatro&#xa;  G1 Comprare Carta Sviluppo&#xa;  G1 Attivare la Produzione&#xa;&#xa;  G2 Prendere risorse Mercatro&#xa;  G2 Comprare Carta Sviluppo&#xa;  G2 Attivare la Produzione&#xa;&#xa;  G3 Prendere risorse Mercatro&#xa;  G3 Comprare Carta Sviluppo&#xa;  G3 Attivare la Produzione&#xa;&#xa;  G4 Prendere risorse Mercatro&#xa;  G4 Comprare Carta Sviluppo&#xa;  G4 Attivare la Produzione&#xa;  &#xa;  Controlla se è finita la partita&#xa;" style="text;align=left;verticalAlign=top;spacingLeft=4;spacingRight=4;overflow=hidden;rotatable=0;points=[[0,0.5],[1,0.5]];portConstraint=eastwest;" parent="yiOMKS7E3EkovL9F9Eef-22" vertex="1">
          <mxGeometry x="270" y="34" width="240" height="296" as="geometry" />
        </mxCell>
        <mxCell id="35oZMmhd7yD35cJpi1J_-9" value="Game Logic" style="swimlane;startSize=23;" parent="yiOMKS7E3EkovL9F9Eef-22" vertex="1">
          <mxGeometry x="10" y="34" width="240" height="376" as="geometry" />
        </mxCell>
        <mxCell id="yiOMKS7E3EkovL9F9Eef-13" value="-username1: string&#xa;-password1: string&#xa;-adress1: int&#xa;&#xa;-username2: string&#xa;-password2: string&#xa;-adress2: int&#xa;&#xa;-username3: string&#xa;-password3: string&#xa;-adress3: int&#xa;&#xa;-username4: string&#xa;-password4: string&#xa;-adress4: int&#xa;&#xa;-idMatch: int&#xa;-nameMatch: string&#xa;-isEnded: boolean" style="text;strokeColor=none;fillColor=none;align=left;verticalAlign=top;spacingLeft=4;spacingRight=4;overflow=hidden;rotatable=0;points=[[0,0.5],[1,0.5]];portConstraint=eastwest;" parent="35oZMmhd7yD35cJpi1J_-9" vertex="1">
          <mxGeometry y="30" width="240" height="280" as="geometry" />
        </mxCell>
        <mxCell id="yiOMKS7E3EkovL9F9Eef-14" value="" style="line;html=1;strokeWidth=1;align=left;verticalAlign=middle;spacingTop=-1;spacingLeft=3;spacingRight=3;rotatable=0;labelPosition=right;points=[];portConstraint=eastwest;" parent="35oZMmhd7yD35cJpi1J_-9" vertex="1">
          <mxGeometry y="312" width="240" height="8" as="geometry" />
        </mxCell>
        <mxCell id="yiOMKS7E3EkovL9F9Eef-15" value="+setupMatch(StandardRulesSet,RulesSet)&#xa;+matchLogic()&#xa;+saveGame()&#xa;" style="text;strokeColor=none;align=left;verticalAlign=top;spacingLeft=4;spacingRight=4;overflow=hidden;rotatable=0;points=[[0,0.5],[1,0.5]];portConstraint=eastwest;" parent="35oZMmhd7yD35cJpi1J_-9" vertex="1">
          <mxGeometry y="320" width="240" height="50" as="geometry" />
        </mxCell>
        <mxCell id="yiOMKS7E3EkovL9F9Eef-30" value="" style="endArrow=classic;html=1;entryX=0;entryY=0.265;entryDx=0;entryDy=0;dashed=1;entryPerimeter=0;exitX=1.01;exitY=0.917;exitDx=0;exitDy=0;exitPerimeter=0;" parent="WIyWlLk6GJQsqaUBKTNV-1" source="zkfFHV4jXpPFQw0GAbJ--1" target="NfzXFvAN2sLwhFyiHCVM-3" edge="1">
          <mxGeometry relative="1" as="geometry">
            <mxPoint x="2250" y="-59" as="sourcePoint" />
            <mxPoint x="2260" y="-149" as="targetPoint" />
          </mxGeometry>
        </mxCell>
        <mxCell id="yiOMKS7E3EkovL9F9Eef-31" value="Use" style="edgeLabel;resizable=0;html=1;align=center;verticalAlign=middle;" parent="yiOMKS7E3EkovL9F9Eef-30" connectable="0" vertex="1">
          <mxGeometry relative="1" as="geometry" />
        </mxCell>
        <mxCell id="ixDbQM82O41a-iaO3_Ok-0" value="" style="endArrow=classic;html=1;exitX=0.997;exitY=0.255;exitDx=0;exitDy=0;dashed=1;exitPerimeter=0;entryX=0;entryY=0.5;entryDx=0;entryDy=0;" parent="WIyWlLk6GJQsqaUBKTNV-1" source="s9a0PcFc4wz41X3oclvl-2" target="s9a0PcFc4wz41X3oclvl-4" edge="1">
          <mxGeometry relative="1" as="geometry">
            <mxPoint x="1239" y="180" as="sourcePoint" />
            <mxPoint x="1489" y="220" as="targetPoint" />
          </mxGeometry>
        </mxCell>
        <mxCell id="ixDbQM82O41a-iaO3_Ok-1" value="Use" style="edgeLabel;resizable=0;html=1;align=center;verticalAlign=middle;" parent="ixDbQM82O41a-iaO3_Ok-0" connectable="0" vertex="1">
          <mxGeometry relative="1" as="geometry" />
        </mxCell>
        <mxCell id="kyalHROY1WXBSIkxGTPj-1" value="Use" style="endArrow=open;endSize=12;dashed=1;html=1;" parent="WIyWlLk6GJQsqaUBKTNV-1" source="UYXELn-aznjXGJklCHjd-2" target="kXcpg0YlyU-LXUACbQBH-1" edge="1">
          <mxGeometry width="160" relative="1" as="geometry">
            <mxPoint x="2680" y="413.6111111111111" as="sourcePoint" />
            <mxPoint x="1790" y="310" as="targetPoint" />
            <Array as="points">
              <mxPoint x="2670" y="430" />
            </Array>
          </mxGeometry>
        </mxCell>
        <mxCell id="kyalHROY1WXBSIkxGTPj-3" value="Use" style="endArrow=open;endSize=12;dashed=1;html=1;" parent="WIyWlLk6GJQsqaUBKTNV-1" source="UYXELn-aznjXGJklCHjd-2" target="6qONtpnG5qTaz_-XZDPJ-0" edge="1">
          <mxGeometry width="160" relative="1" as="geometry">
            <mxPoint x="2680" y="499.16666666666674" as="sourcePoint" />
            <mxPoint x="1680" y="550" as="targetPoint" />
            <Array as="points">
              <mxPoint x="2670" y="578" />
            </Array>
          </mxGeometry>
        </mxCell>
        <mxCell id="kyalHROY1WXBSIkxGTPj-4" value="Use" style="endArrow=open;endSize=12;dashed=1;html=1;exitX=1;exitY=0.5;exitDx=0;exitDy=0;" parent="WIyWlLk6GJQsqaUBKTNV-1" source="UYXELn-aznjXGJklCHjd-3" target="6qONtpnG5qTaz_-XZDPJ-4" edge="1">
          <mxGeometry width="160" relative="1" as="geometry">
            <mxPoint x="2680" y="458.33333333333326" as="sourcePoint" />
            <mxPoint x="2240" y="450" as="targetPoint" />
            <Array as="points">
              <mxPoint x="2660" y="481" />
            </Array>
          </mxGeometry>
        </mxCell>
        <mxCell id="kyalHROY1WXBSIkxGTPj-5" style="edgeStyle=orthogonalEdgeStyle;rounded=0;orthogonalLoop=1;jettySize=auto;html=1;" parent="WIyWlLk6GJQsqaUBKTNV-1" edge="1">
          <mxGeometry relative="1" as="geometry">
            <mxPoint x="80" y="525" as="targetPoint" />
            <Array as="points">
              <mxPoint x="10" y="581" />
              <mxPoint x="10" y="525" />
              <mxPoint x="80" y="525" />
            </Array>
          </mxGeometry>
        </mxCell>
        <mxCell id="z_oq6fYV3jepOehVN3SK-1" value="" style="endArrow=classic;html=1;fontColor=#000000;entryX=0.231;entryY=-0.001;entryDx=0;entryDy=0;entryPerimeter=0;exitX=0.462;exitY=1.008;exitDx=0;exitDy=0;exitPerimeter=0;" parent="WIyWlLk6GJQsqaUBKTNV-1" source="s9a0PcFc4wz41X3oclvl-0" target="yiOMKS7E3EkovL9F9Eef-22" edge="1">
          <mxGeometry relative="1" as="geometry">
            <mxPoint x="1320" y="420" as="sourcePoint" />
            <mxPoint x="770" y="430" as="targetPoint" />
          </mxGeometry>
        </mxCell>
        <mxCell id="z_oq6fYV3jepOehVN3SK-2" value="Connected to" style="edgeLabel;resizable=0;html=1;align=center;verticalAlign=middle;" parent="z_oq6fYV3jepOehVN3SK-1" connectable="0" vertex="1">
          <mxGeometry relative="1" as="geometry" />
        </mxCell>
        <mxCell id="uatotxejLEeenUt5TC5e-2" value="" style="endArrow=diamondThin;endFill=1;endSize=24;html=1;exitX=0.003;exitY=1.018;exitDx=0;exitDy=0;exitPerimeter=0;" parent="WIyWlLk6GJQsqaUBKTNV-1" source="zkfFHV4jXpPFQw0GAbJ--5" edge="1">
          <mxGeometry width="160" relative="1" as="geometry">
            <mxPoint x="1870" y="510" as="sourcePoint" />
            <mxPoint x="1760" y="430" as="targetPoint" />
            <Array as="points" />
          </mxGeometry>
        </mxCell>
        <mxCell id="uatotxejLEeenUt5TC5e-4" value="" style="endArrow=diamondThin;endFill=1;endSize=24;html=1;" parent="WIyWlLk6GJQsqaUBKTNV-1" source="5tt3_I8p8CxLFxKSJom4-4" edge="1">
          <mxGeometry width="160" relative="1" as="geometry">
            <mxPoint x="2398.04" y="437.808" as="sourcePoint" />
            <mxPoint x="1760" y="570" as="targetPoint" />
          </mxGeometry>
        </mxCell>
        <mxCell id="qD7D_m39awc1MZy7WmdB-0" value="LeaderCard {abstract}" style="swimlane;fontStyle=1;align=center;verticalAlign=top;childLayout=stackLayout;horizontal=1;startSize=26;horizontalStack=0;resizeParent=1;resizeParentMax=0;resizeLast=0;collapsible=1;marginBottom=0;" parent="WIyWlLk6GJQsqaUBKTNV-1" vertex="1">
          <mxGeometry x="1760" y="950" width="220" height="150" as="geometry" />
        </mxCell>
        <mxCell id="qD7D_m39awc1MZy7WmdB-1" value="- VPs: int&#xa;- IsActive: boolean&#xa;- type: Resource" style="text;strokeColor=none;fillColor=none;align=left;verticalAlign=top;spacingLeft=4;spacingRight=4;overflow=hidden;rotatable=0;points=[[0,0.5],[1,0.5]];portConstraint=eastwest;" parent="qD7D_m39awc1MZy7WmdB-0" vertex="1">
          <mxGeometry y="26" width="220" height="54" as="geometry" />
        </mxCell>
        <mxCell id="qD7D_m39awc1MZy7WmdB-2" value="" style="line;strokeWidth=1;fillColor=none;align=left;verticalAlign=middle;spacingTop=-1;spacingLeft=3;spacingRight=3;rotatable=0;labelPosition=right;points=[];portConstraint=eastwest;" parent="qD7D_m39awc1MZy7WmdB-0" vertex="1">
          <mxGeometry y="80" width="220" height="8" as="geometry" />
        </mxCell>
        <mxCell id="qD7D_m39awc1MZy7WmdB-3" value="+ getVP(): int&#xa;+ isActive(): boolean&#xa;+ activate(): void" style="text;strokeColor=none;fillColor=none;align=left;verticalAlign=top;spacingLeft=4;spacingRight=4;overflow=hidden;rotatable=0;points=[[0,0.5],[1,0.5]];portConstraint=eastwest;" parent="qD7D_m39awc1MZy7WmdB-0" vertex="1">
          <mxGeometry y="88" width="220" height="62" as="geometry" />
        </mxCell>
        <mxCell id="UYXELn-aznjXGJklCHjd-2" value="DevCard" style="swimlane;fontStyle=1;align=center;verticalAlign=top;childLayout=stackLayout;horizontal=1;startSize=26;horizontalStack=0;resizeParent=1;resizeParentMax=0;resizeLast=0;collapsible=1;marginBottom=0;swimlaneFillColor=#ffffff;" parent="WIyWlLk6GJQsqaUBKTNV-1" vertex="1">
          <mxGeometry x="2410" y="413" width="260" height="200" as="geometry" />
        </mxCell>
        <mxCell id="UYXELn-aznjXGJklCHjd-3" value="- cost: Array Resource&#xa;- level: Level&#xa;- color: CardColor&#xa;- VP: int&#xa;- production: Production" style="text;strokeColor=none;fillColor=none;align=left;verticalAlign=top;spacingLeft=4;spacingRight=4;overflow=hidden;rotatable=0;points=[[0,0.5],[1,0.5]];portConstraint=eastwest;" parent="UYXELn-aznjXGJklCHjd-2" vertex="1">
          <mxGeometry y="26" width="260" height="84" as="geometry" />
        </mxCell>
        <mxCell id="UYXELn-aznjXGJklCHjd-4" value="" style="line;strokeWidth=1;fillColor=none;align=left;verticalAlign=middle;spacingTop=-1;spacingLeft=3;spacingRight=3;rotatable=0;labelPosition=right;points=[];portConstraint=eastwest;" parent="UYXELn-aznjXGJklCHjd-2" vertex="1">
          <mxGeometry y="110" width="260" height="8" as="geometry" />
        </mxCell>
        <mxCell id="UYXELn-aznjXGJklCHjd-5" value="+ GetCost(): Array Resource&#xa;+ GetLevel(): Level&#xa;+ GetVP(): int&#xa;+ GetInputProduction(): Array Resource&#xa;+ GetOutputProduction(): Array Resource" style="text;strokeColor=none;fillColor=none;align=left;verticalAlign=top;spacingLeft=4;spacingRight=4;overflow=hidden;rotatable=0;points=[[0,0.5],[1,0.5]];portConstraint=eastwest;" parent="UYXELn-aznjXGJklCHjd-2" vertex="1">
          <mxGeometry y="118" width="260" height="82" as="geometry" />
        </mxCell>
        <mxCell id="SAUgXPHbTDug8tTQSV8n-2" style="edgeStyle=orthogonalEdgeStyle;rounded=0;orthogonalLoop=1;jettySize=auto;html=1;" parent="WIyWlLk6GJQsqaUBKTNV-1" source="6qONtpnG5qTaz_-XZDPJ-6" target="UYXELn-aznjXGJklCHjd-2" edge="1">
          <mxGeometry relative="1" as="geometry">
            <Array as="points">
              <mxPoint x="2548" y="690" />
              <mxPoint x="2548" y="690" />
            </Array>
          </mxGeometry>
        </mxCell>
        <mxCell id="SAUgXPHbTDug8tTQSV8n-5" value="Use" style="endArrow=open;endSize=12;dashed=1;html=1;exitX=1;exitY=0.5;exitDx=0;exitDy=0;entryX=1.001;entryY=0.77;entryDx=0;entryDy=0;entryPerimeter=0;" parent="WIyWlLk6GJQsqaUBKTNV-1" source="6qONtpnG5qTaz_-XZDPJ-7" target="kXcpg0YlyU-LXUACbQBH-4" edge="1">
          <mxGeometry width="160" relative="1" as="geometry">
            <mxPoint x="2680" y="566.2560000000001" as="sourcePoint" />
            <mxPoint x="3190" y="660" as="targetPoint" />
            <Array as="points">
              <mxPoint x="3010" y="773" />
              <mxPoint x="3010" y="393" />
            </Array>
          </mxGeometry>
        </mxCell>
        <mxCell id="SAUgXPHbTDug8tTQSV8n-9" value="Use" style="endArrow=open;endSize=12;dashed=1;html=1;" parent="WIyWlLk6GJQsqaUBKTNV-1" source="7LExhrsFtb4krhW59dAO-0" target="kXcpg0YlyU-LXUACbQBH-1" edge="1">
          <mxGeometry width="160" relative="1" as="geometry">
            <mxPoint x="2500" y="1039.996" as="sourcePoint" />
            <mxPoint x="3120" y="1040" as="targetPoint" />
            <Array as="points">
              <mxPoint x="3040" y="1028" />
              <mxPoint x="3040" y="357" />
            </Array>
          </mxGeometry>
        </mxCell>
        <mxCell id="XyvYSX9-lgm5ziwBI5H5-5" value="" style="endArrow=diamondThin;endFill=0;endSize=24;html=1;entryX=1;entryY=0.5;entryDx=0;entryDy=0;" parent="WIyWlLk6GJQsqaUBKTNV-1" source="UYXELn-aznjXGJklCHjd-2" target="3G_JpGnnki6wpbxw6Dh9-0" edge="1">
          <mxGeometry width="160" relative="1" as="geometry">
            <mxPoint x="2320" y="600" as="sourcePoint" />
            <mxPoint x="2480" y="600" as="targetPoint" />
            <Array as="points">
              <mxPoint x="2240" y="705" />
            </Array>
          </mxGeometry>
        </mxCell>
        <mxCell id="XyvYSX9-lgm5ziwBI5H5-6" value="0..9" style="text;html=1;align=center;verticalAlign=middle;resizable=0;points=[];autosize=1;" parent="WIyWlLk6GJQsqaUBKTNV-1" vertex="1">
          <mxGeometry x="2360" y="580" width="40" height="20" as="geometry" />
        </mxCell>
        <mxCell id="XyvYSX9-lgm5ziwBI5H5-7" value="" style="endArrow=diamondThin;endFill=0;endSize=24;html=1;" parent="WIyWlLk6GJQsqaUBKTNV-1" source="qD7D_m39awc1MZy7WmdB-0" target="3G_JpGnnki6wpbxw6Dh9-0" edge="1">
          <mxGeometry width="160" relative="1" as="geometry">
            <mxPoint x="2320" y="880" as="sourcePoint" />
            <mxPoint x="2480" y="880" as="targetPoint" />
            <Array as="points">
              <mxPoint x="1940" y="890" />
            </Array>
          </mxGeometry>
        </mxCell>
        <mxCell id="XyvYSX9-lgm5ziwBI5H5-8" value="" style="endArrow=diamondThin;endFill=1;endSize=24;html=1;exitX=0.25;exitY=0;exitDx=0;exitDy=0;" parent="WIyWlLk6GJQsqaUBKTNV-1" source="7LExhrsFtb4krhW59dAO-0" target="3G_JpGnnki6wpbxw6Dh9-0" edge="1">
          <mxGeometry width="160" relative="1" as="geometry">
            <mxPoint x="2320" y="880" as="sourcePoint" />
            <mxPoint x="2480" y="880" as="targetPoint" />
            <Array as="points" />
          </mxGeometry>
        </mxCell>
        <mxCell id="XyvYSX9-lgm5ziwBI5H5-9" value="0..2" style="text;html=1;align=center;verticalAlign=middle;resizable=0;points=[];autosize=1;" parent="WIyWlLk6GJQsqaUBKTNV-1" vertex="1">
          <mxGeometry x="1890" y="923" width="40" height="20" as="geometry" />
        </mxCell>
        <mxCell id="qB0gsq-18giz4WO5CfZz-1" value="LeaderCardDeck" style="swimlane;fontStyle=1;align=center;verticalAlign=top;childLayout=stackLayout;horizontal=1;startSize=26;horizontalStack=0;resizeParent=1;resizeParentMax=0;resizeLast=0;collapsible=1;marginBottom=0;" parent="WIyWlLk6GJQsqaUBKTNV-1" vertex="1">
          <mxGeometry x="1200" y="950" width="160" height="113" as="geometry" />
        </mxCell>
        <mxCell id="qB0gsq-18giz4WO5CfZz-2" value="+Deck: LeaderCard[16]&#xa;-Given: LeaderCard[4]&#xa;" style="text;strokeColor=none;fillColor=none;align=left;verticalAlign=top;spacingLeft=4;spacingRight=4;overflow=hidden;rotatable=0;points=[[0,0.5],[1,0.5]];portConstraint=eastwest;" parent="qB0gsq-18giz4WO5CfZz-1" vertex="1">
          <mxGeometry y="26" width="160" height="34" as="geometry" />
        </mxCell>
        <mxCell id="qB0gsq-18giz4WO5CfZz-3" value="" style="line;strokeWidth=1;fillColor=none;align=left;verticalAlign=middle;spacingTop=-1;spacingLeft=3;spacingRight=3;rotatable=0;labelPosition=right;points=[];portConstraint=eastwest;" parent="qB0gsq-18giz4WO5CfZz-1" vertex="1">
          <mxGeometry y="60" width="160" height="8" as="geometry" />
        </mxCell>
        <mxCell id="qB0gsq-18giz4WO5CfZz-4" value="+DrawTwo(Given): void&#xa;+SetGiven(): void" style="text;strokeColor=none;fillColor=none;align=left;verticalAlign=top;spacingLeft=4;spacingRight=4;overflow=hidden;rotatable=0;points=[[0,0.5],[1,0.5]];portConstraint=eastwest;" parent="qB0gsq-18giz4WO5CfZz-1" vertex="1">
          <mxGeometry y="68" width="160" height="45" as="geometry" />
        </mxCell>
        <mxCell id="qB0gsq-18giz4WO5CfZz-6" value="" style="endArrow=diamondThin;endFill=1;endSize=24;html=1;exitX=0.5;exitY=0;exitDx=0;exitDy=0;" parent="WIyWlLk6GJQsqaUBKTNV-1" source="qB0gsq-18giz4WO5CfZz-1" target="yiOMKS7E3EkovL9F9Eef-22" edge="1">
          <mxGeometry width="160" relative="1" as="geometry">
            <mxPoint x="1790" y="860" as="sourcePoint" />
            <mxPoint x="1950" y="860" as="targetPoint" />
            <Array as="points">
              <mxPoint x="1280" y="860" />
            </Array>
          </mxGeometry>
        </mxCell>
        <mxCell id="qB0gsq-18giz4WO5CfZz-7" value="" style="endArrow=diamondThin;endFill=0;endSize=24;html=1;exitX=0;exitY=0.5;exitDx=0;exitDy=0;" parent="WIyWlLk6GJQsqaUBKTNV-1" source="oog7lrOWCa2fzUTYI8c2-11" target="qB0gsq-18giz4WO5CfZz-1" edge="1">
          <mxGeometry width="160" relative="1" as="geometry">
            <mxPoint x="1670" y="960" as="sourcePoint" />
            <mxPoint x="1830" y="960" as="targetPoint" />
            <Array as="points">
              <mxPoint x="1390" y="933" />
              <mxPoint x="1390" y="1060" />
            </Array>
          </mxGeometry>
        </mxCell>
        <mxCell id="qB0gsq-18giz4WO5CfZz-8" value="" style="endArrow=diamondThin;endFill=0;endSize=24;html=1;" parent="WIyWlLk6GJQsqaUBKTNV-1" source="oog7lrOWCa2fzUTYI8c2-12" target="qB0gsq-18giz4WO5CfZz-1" edge="1">
          <mxGeometry width="160" relative="1" as="geometry">
            <mxPoint x="1230" y="1142" as="sourcePoint" />
            <mxPoint x="1390" y="1142" as="targetPoint" />
            <Array as="points">
              <mxPoint x="1390" y="1227" />
              <mxPoint x="1390" y="1060" />
            </Array>
          </mxGeometry>
        </mxCell>
        <mxCell id="qB0gsq-18giz4WO5CfZz-10" value="" style="endArrow=diamondThin;endFill=0;endSize=24;html=1;" parent="WIyWlLk6GJQsqaUBKTNV-1" source="oog7lrOWCa2fzUTYI8c2-13" target="qB0gsq-18giz4WO5CfZz-1" edge="1">
          <mxGeometry width="160" relative="1" as="geometry">
            <mxPoint x="1220" y="1142" as="sourcePoint" />
            <mxPoint x="1360" y="1007" as="targetPoint" />
            <Array as="points">
              <mxPoint x="1390" y="1117" />
              <mxPoint x="1390" y="1060" />
            </Array>
          </mxGeometry>
        </mxCell>
        <mxCell id="qB0gsq-18giz4WO5CfZz-11" value="4" style="text;html=1;align=center;verticalAlign=middle;resizable=0;points=[];autosize=1;" parent="WIyWlLk6GJQsqaUBKTNV-1" vertex="1">
          <mxGeometry x="1370" y="910" width="20" height="20" as="geometry" />
        </mxCell>
        <mxCell id="qB0gsq-18giz4WO5CfZz-12" value="4" style="text;html=1;align=center;verticalAlign=middle;resizable=0;points=[];autosize=1;" parent="WIyWlLk6GJQsqaUBKTNV-1" vertex="1">
          <mxGeometry x="1400" y="996.5" width="20" height="20" as="geometry" />
        </mxCell>
        <mxCell id="qB0gsq-18giz4WO5CfZz-13" value="4" style="text;html=1;align=center;verticalAlign=middle;resizable=0;points=[];autosize=1;" parent="WIyWlLk6GJQsqaUBKTNV-1" vertex="1">
          <mxGeometry x="1370" y="1100" width="20" height="20" as="geometry" />
        </mxCell>
        <mxCell id="qB0gsq-18giz4WO5CfZz-14" value="4" style="text;html=1;align=center;verticalAlign=middle;resizable=0;points=[];autosize=1;" parent="WIyWlLk6GJQsqaUBKTNV-1" vertex="1">
          <mxGeometry x="1360" y="1210" width="20" height="20" as="geometry" />
        </mxCell>
        <mxCell id="qB0gsq-18giz4WO5CfZz-37" value="" style="endArrow=diamondThin;endFill=0;endSize=24;html=1;" parent="WIyWlLk6GJQsqaUBKTNV-1" source="oog7lrOWCa2fzUTYI8c2-14" target="qB0gsq-18giz4WO5CfZz-1" edge="1">
          <mxGeometry width="160" relative="1" as="geometry">
            <mxPoint x="1540" y="940" as="sourcePoint" />
            <mxPoint x="1700" y="940" as="targetPoint" />
            <Array as="points">
              <mxPoint x="1390" y="1023" />
              <mxPoint x="1390" y="1060" />
            </Array>
          </mxGeometry>
        </mxCell>
        <mxCell id="qB0gsq-18giz4WO5CfZz-38" value="" style="endArrow=block;endSize=16;endFill=0;html=1;" parent="WIyWlLk6GJQsqaUBKTNV-1" source="oog7lrOWCa2fzUTYI8c2-13" target="qD7D_m39awc1MZy7WmdB-0" edge="1">
          <mxGeometry width="160" relative="1" as="geometry">
            <mxPoint x="1580" y="1140" as="sourcePoint" />
            <mxPoint x="1740" y="1140" as="targetPoint" />
            <Array as="points">
              <mxPoint x="1610" y="1120" />
              <mxPoint x="1610" y="1025" />
            </Array>
          </mxGeometry>
        </mxCell>
        <mxCell id="qB0gsq-18giz4WO5CfZz-39" value="" style="endArrow=block;endSize=16;endFill=0;html=1;" parent="WIyWlLk6GJQsqaUBKTNV-1" source="oog7lrOWCa2fzUTYI8c2-11" target="qD7D_m39awc1MZy7WmdB-0" edge="1">
          <mxGeometry width="160" relative="1" as="geometry">
            <mxPoint x="1570" y="910" as="sourcePoint" />
            <mxPoint x="1730" y="910" as="targetPoint" />
            <Array as="points">
              <mxPoint x="1610" y="933" />
              <mxPoint x="1610" y="1025" />
            </Array>
          </mxGeometry>
        </mxCell>
        <mxCell id="qB0gsq-18giz4WO5CfZz-41" value="" style="endArrow=block;endSize=16;endFill=0;html=1;" parent="WIyWlLk6GJQsqaUBKTNV-1" source="oog7lrOWCa2fzUTYI8c2-12" target="qD7D_m39awc1MZy7WmdB-0" edge="1">
          <mxGeometry width="160" relative="1" as="geometry">
            <mxPoint x="1580" y="1240" as="sourcePoint" />
            <mxPoint x="1740" y="1240" as="targetPoint" />
            <Array as="points">
              <mxPoint x="1610" y="1227" />
              <mxPoint x="1610" y="1025" />
              <mxPoint x="1680" y="1025" />
              <mxPoint x="1690" y="1025" />
            </Array>
          </mxGeometry>
        </mxCell>
      </root>
    </mxGraphModel>
  </diagram>
</mxfile>
